<svg xmlns="http://www.w3.org/2000/svg" width="600" height="600" viewBox="0 0 158.75 73.819"><path d="M83.786 36.215h10.077V73.76H83.786zm13.437-13.437H107.3V73.76H97.223zM52.564 45.898h27.862V73.76H52.564zM27.961 61.015h12.647v12.647l-12.75.104zM0 52.712l8.994-8.988 8.988 8.994-8.994 8.988zm50.587-29.048l8.995-8.988 8.988 8.994-8.995 8.988zM0 23.466l8.994-8.988 8.988 8.995-8.994 8.988zM25.294 9.041L34.288.053l8.988 8.994-8.994 8.988z"/><g font-weight="400" font-family="Consolas" letter-spacing="0" word-spacing="0" text-anchor="middle"><path style="line-height:125%;-inkscape-font-specification:Consolas;text-align:center" d="M105.07 68.054q-.366.093-.757.13-.39.043-.793.043-1.171 0-1.748-.526-.576-.533-.576-1.63v-3.248h-1.742v-.905h1.742v-1.711l1.078-.28v1.99h2.796v.906h-2.796v3.16q0 .67.353 1.005.36.328 1.054.328.298 0 .651-.043.353-.05.738-.149zm-16.708-5.312h-1.895v-.919h3.018v5.48h1.907v.924h-5.135v-.925h2.105zm.39-3.605q.184 0 .344.07.16.064.274.186.121.121.185.28.07.153.07.338 0 .18-.07.339-.064.159-.185.28-.115.121-.274.192-.16.063-.345.063-.185 0-.344-.063-.16-.07-.281-.192-.115-.121-.185-.28-.064-.16-.064-.339 0-.185.064-.338.07-.16.185-.28.121-.122.28-.185.16-.07.345-.07zm-16.744 4.066q0 1.208-.475 2.146-.463.925-1.337 1.568-.861.642-2.095.976-1.22.334-2.724.334h-4.395V51.431h4.806q5.616 0 5.616 4.087 0 1.362-.655 2.338-.643.977-2.108 1.453.681.128 1.285.437.617.308 1.08.796.462.489.732 1.157.27.668.27 1.504zm-2.981-7.377q0-.514-.155-.964-.154-.463-.54-.784-.385-.334-1.04-.527-.656-.192-1.658-.192h-2.365v5.256h2.288q.784 0 1.413-.167.643-.167 1.093-.514.462-.347.707-.861.257-.527.257-1.247zm.552 7.454q0-.643-.27-1.157t-.784-.861q-.514-.36-1.259-.553-.733-.192-1.658-.192H63.27V66.3h2.416q1.967 0 2.93-.733.964-.732.964-2.287z" fill="#fff"/><path style="line-height:125%;-inkscape-font-specification:Consolas;text-align:center" d="M115.755 67.87q-.442.17-.909.247-.46.084-.954.084-1.545 0-2.382-.837-.83-.837-.83-2.447 0-.772.24-1.402.24-.63.674-1.077.435-.448 1.039-.688.603-.246 1.33-.246.507 0 .948.07.441.072.844.235v1.077q-.422-.22-.864-.318-.434-.104-.902-.104-.435 0-.824.169-.383.162-.675.474-.292.311-.46.759-.17.448-.17 1.012 0 1.182.572 1.772.577.584 1.596.584.461 0 .89-.103.434-.104.837-.312zm10.741.24h-1.13v-4.16q0-.752-.285-1.122-.279-.377-.805-.377-.227 0-.428.065-.195.058-.409.214-.214.15-.467.409-.253.26-.584.65v4.322h-1.13V58.94h1.13v2.654l-.04 1.026q.267-.318.52-.532.26-.221.513-.357.26-.137.526-.195.266-.058.551-.058.974 0 1.506.597.532.59.532 1.784zm10.66 0h-1.012l-.039-1.05q-.292.337-.558.564-.26.22-.52.357-.259.136-.525.188-.26.058-.552.058-1.006 0-1.518-.59-.513-.59-.513-1.785v-4.258h1.13v4.167q0 1.5 1.129 1.5.207 0 .402-.059.201-.065.415-.214.221-.156.468-.416.253-.26.564-.655v-4.323h1.13zm10.982-.09q-.383.097-.792.136-.408.045-.83.045-1.227 0-1.83-.551-.604-.559-.604-1.707v-3.401h-1.824v-.948h1.824v-1.791l1.13-.292v2.083h2.926v.948h-2.927v3.31q0 .7.37 1.051.377.344 1.103.344.312 0 .682-.045.37-.052.772-.156zm9.437-3.674q.02-.435-.085-.792-.103-.363-.324-.623-.214-.26-.539-.402-.324-.15-.753-.15-.37 0-.675.144-.305.142-.525.402-.22.26-.357.623-.137.363-.169.798zm1.174.163q0 .24-.005.402-.006.162-.02.305h-4.576q0 1 .559 1.538.558.532 1.61.532.285 0 .57-.02.286-.025.552-.064.266-.039.506-.084.247-.052.455-.11v.927q-.461.13-1.045.208-.578.084-1.201.084-.837 0-1.44-.227-.604-.227-.994-.655-.383-.435-.571-1.058-.182-.63-.182-1.422 0-.687.195-1.298.201-.616.578-1.077.382-.467.934-.74.552-.272 1.253-.272.681 0 1.207.214t.883.61q.363.39.545.954.188.558.188 1.253z"/></g></svg>